# xmcd CD database file
#
# Track frame offsets:
#	150
#	10687
#	37792
#	59777
#	95807
#	109450
#	140862
#	164465
#	199897
#	222515
#	286445
#	306657
#
# Disc length: 4426 seconds
#
# Revision: 0
# Processed by: cddbd v1.4PL0 Copyright (c) Steve Scherf et al.
# Submitted via: CDex 1.50Beta5
#
DISCID=c511480c
DTITLE=Enrico Intra - Dissonanza - Consonanza
DYEAR=1999
DGENRE=Jazz
TTITLE0=The Classic Jazz
TTITLE1=Francoforte
TTITLE2=To The Victims Of Vietnam (I)
TTITLE3=Tribute To Monk
TTITLE4=Effetto Alfa
TTITLE5=Video Blues
TTITLE6=Gloria I
TTITLE7=Tribute To Powell
TTITLE8=Contrasti
TTITLE9=Nuova Civilta' (I-III-IV)
TTITLE10=Dissonanza-Consonanza
TTITLE11=Classic Jazz
EXTD=YEAR: 1999
EXTT0=
EXTT1=
EXTT2=
EXTT3=
EXTT4=
EXTT5=
EXTT6=
EXTT7=
EXTT8=
EXTT9=
EXTT10=
EXTT11=
PLAYORDER=
